Coordinates
version=1
nRows=19
nColumns=24
inDegrees=yes

Units are S.I. units (second, meters, Newtons, ...)
If the header above contains a line with 'inDegrees', this indicates whether rotational values are in degrees (yes) or radians (no).

endheader
time	pelvis_tilt	pelvis_list	pelvis_rotation	pelvis_tx	pelvis_ty	pelvis_tz	hip_flexion_r	hip_adduction_r	hip_rotation_r	knee_angle_r	ankle_angle_r	subtalar_angle_r	mtp_angle_r	hip_flexion_l	hip_adduction_l	hip_rotation_l	knee_angle_l	ankle_angle_l	subtalar_angle_l	mtp_angle_l	lumbar_extension	lumbar_bending	lumbar_rotation
1.5	5.4970220815683355	-2.0266987242143943	-4.871123451862578	0.5913509708754195	1.0133496860627218	0.016377645680756142	-7.489056121158616	-2.902862976150242	-0.20512097268572926	-43.185616908952085	3.639886483754958	-4.685028268691517e-06	2.1930256079125824e-10	7.716706378308372	-0.017001168243975684	-2.7031163577880615	2.622620836505618	0.502315381069125	2.6765620337375693e-07	7.121879134449745e-16	-15.902808338638744	-1.9936326472338601	0.5443011809658769
1.517	6.892936453177114	0.890367578058247	-5.195945480804387	0.6127319178428386	1.0385995234928724	-0.013411716671333633	9.042696360275924	-11.350549846201288	-7.373161253998092	-97.70971825562434	-8.741027514321692	-8.244147907531262e-06	1.1489639461098681e-10	5.19315739002348	5.4875270180311615	-1.793862949461325	-19.06436324740629	1.7209024835142213	-1.94709164532962e-06	-8.578762471163774e-16	-15.039346471027041	-8.095825593440544	-2.964839412421728
1.533	5.847937768998175	-1.832355749810711	-2.649186114818343	0.5991749887678588	1.0359266372765348	0.0030514480385757845	5.9410591960542	-3.936934758871285	-5.208491390130547	-64.01075758062	4.135246988771581	-5.1203979747377816e-06	-1.5006239129463286e-10	5.474134530440292	1.0603451977739755	0.9120606929829973	-19.523063308728133	1.6844681544200537	1.1373336622410692e-06	-8.473736808091209e-16	-15.647884310021102	-2.12209155563884	-2.940452398006531
1.55	6.923393297457649	-1.8888695152281914	-4.715578192852729	0.6013228801970233	1.063019552817567	-0.005522336888001623	8.232472584944256	-8.175028272582878	-8.654463290153082	-105.88910863904874	-1.459394993395035	-1.1491016484688444e-05	-4.986117927480295e-10	15.1333331630624	2.332414132443705	-5.643261871693366	-14.21797932957783	-1.7654735165095863	-2.5265531069280597e-06	3.0173996251336104e-16	-16.29481886935167	-4.355194943287918	-1.1414030236422574
1.567	5.762429510434164	-4.666046433299548	-5.414122537521833	0.5930949206689579	1.0338337797850583	0.0305678155731178	-17.802807824675902	1.1982087169460502	2.498693075834235	-62.63616233795241	12.24630924383646	-1.8042263251947262e-06	-7.525700382414393e-10	24.41687550158413	-4.1868479107371295	-4.393520487806981	-6.650159457106035	-2.0649411447545463	-5.282922441211734e-06	-1.1713252208345414e-15	-16.728846548778492	-0.3184248429600691	3.194670271111267
1.583	6.244430255012115	-1.7003473452539535	-0.01252290390469557	0.5976640265816412	1.038314834900229	0.006322482452848183	9.657995892051773	-2.235242742671894	-2.880817976560216	-61.12285199336299	4.377370457309968	-3.4525641335255297e-06	4.518057545948294e-10	1.317600526717726	0.27261003757159186	1.1828913402238053	-16.933579204140447	3.375137694700864	7.730616998534042e-07	-1.62774176909593e-15	-16.105398225456224	-0.20791391976659157	-5.057067719356037
1.6	4.6695270666288895	-3.1480515347407048	0.21489502094721213	0.5862063926953519	1.026865463636965	0.023562671059520417	2.752123205967326	3.7192813749731193	-2.618602918607534	-19.77962891681176	9.33098981891327	1.9464220908805975e-06	6.0111834019951614e-12	3.19200461003609	-3.4660390881933156	-2.080369620421079	-15.490627027722155	1.1337631292267694	-8.827264041175684e-07	4.3583513408880184e-16	-15.61139232892655	2.6262915091450676	-2.420728597325025
1.617	5.3959934381908	-0.16466480518323245	0.6104892564966435	0.5782628264490556	1.027662329776542	-0.008708645742313538	19.96983391980747	-4.085649810842673	-5.836457584490982	-31.58739964624946	3.215600220129829	-5.775998035232621e-06	6.308569767391052e-11	-14.784898016234644	3.1042415675530486	4.594114589976216	1.6836754910827807	12.740986989748535	1.4527542570995142e-06	5.673271317795781e-16	-16.72463373725611	-1.4111732434543545	-6.933443316970149
1.633	4.067554959077946	-1.768296225523238	1.649453592005212	0.5667120081313921	1.0139013220075046	-0.009288840071401796	21.197425338990865	-0.09375853040102466	-4.426846476944523	-5.943118698154507	8.436069696238157	-1.350993578291373e-06	3.3427596846427e-10	-20.9637915447493	1.4851117694587883	5.022884182084298	15.215741200551758	11.577468333136853	2.489111196461825e-06	-7.499974892036018e-16	-15.836595234483852	1.2192841437675372	-7.932292674624324
1.65	4.828764416400398	0.6932629311743452	1.0328714011919686	0.6001456817351839	1.0141369744840094	-0.01576957410290765	25.28338766905627	-5.578145128086299	-6.291531263565377	-45.74863963943579	-5.204747070599675	9.165214152913157e-08	-7.499498303983888e-10	-17.984612736978352	3.793403670638085	6.230029078688953	-20.387188716596256	7.424605421275922	3.1301027356777815e-06	5.136186373352174e-16	-13.587196412801006	-3.022875973885433	-9.163795582551895
1.667	4.738291440952456	-2.0120157232024614	-2.077471260863723	0.5699273374944988	1.0316996233276334	-0.014384942824857309	14.842189125584635	-3.4932345966448257	-8.7975457741824	-32.87893517595765	2.6373516658558644	-3.6938337790598204e-06	6.042148547613944e-10	-8.64864662036363	2.3293607789282293	-1.6117294046868953	18.98500235749978	7.612365541846586	-2.8369794917480033e-06	2.141329624082291e-16	-16.297309461616365	-2.304687931827311	-4.182350490853354
1.683	6.465892958192389	1.5115896138157954	1.5168101163124026	0.5818071603905904	1.0509386841114976	-0.06476984624750723	50.66099602261565	-12.856828253337369	-18.24156479838188	-76.51012116684069	-7.8544232303640475	-1.0494696513215215e-05	-9.705779706813032e-10	-32.91237899525208	10.368984226246873	6.082707551593338	9.543028158780206	14.7575266412567	1.405944507873433e-06	7.409206091572172e-16	-15.836927962667222	-6.251231525920747	-14.252055932866924
1.7	4.887424005170497	-0.8834990436753174	2.767864922843253	0.5857484303076033	1.0184012746717932	-0.03187617411821534	36.7895892817736	-4.871932140536668	-9.660036482399459	-42.03627357500496	1.061274904505509	-5.9443233904013356e-06	-4.493076416704625e-10	-31.179431148729407	4.7701809943102464	9.349157478361956	5.375380430379789	11.443637774914663	7.656865598505546e-06	1.0333842466804974e-15	-14.468054699442755	-0.06580490562832741	-12.741049665705251
1.717	6.580120968479255	-0.07634123303882703	-0.8860331828236707	0.6028530567367938	1.0563551758330725	-0.016276284691735116	23.859567847409732	-8.060736994211041	-14.270044747799627	-84.04281192920249	-6.533133475279739	-7.992350144460356e-06	-7.939084875199204e-10	-1.7754446086041327	3.8641851439720343	-1.9545540941389616	-26.088291526621347	3.121967928074671	-2.0757870667538424e-07	-8.979266503926516e-16	-15.398425794158552	-4.063115987924703	-5.636916646065307
1.733	5.573777324069251	-2.218763519511554	-2.784544506657335	0.5895935303522694	1.0143327705257688	-0.011542873659399593	10.839071335034046	-4.747945348284041	-4.668357668730377	-56.20291130344482	-0.10968545277238384	-4.117972763712632e-06	4.225475402238088e-10	-8.981797596563885	2.510286306151703	3.5972848749069684	10.982232469501438	5.356333492440517	3.6617174022950748e-06	-2.716309877833638e-16	-15.644165474775013	-2.271104203908593	-4.788723420720091
1.75	4.457220594379032	-0.5150260418530161	0.9628499737442028	0.5755797001856905	1.0329515524357396	0.017143622738526293	11.076376797669564	0.9470743865302689	-8.017671464222127	-3.2842090785293756	7.35433157038363	-4.6661679037909505e-06	4.877806997795015e-10	-3.496115499815426	-0.13326304087154917	-3.2621251398249793	-13.212877400068084	6.789094690958073	-1.4868530167483116e-06	1.6977900020927392e-17	-16.25192428599182	1.2632918460333795	-3.440525638580926
1.767	3.1536437183171904	0.22294159351526432	-1.7627224146737626	0.5614694150924652	0.9959344509351881	0.015499836727751293	-1.917488873202366	2.0371181902948114	-1.2334084874544784	41.23933694069156	10.987599217776982	5.023331125172376e-06	2.271137070989213e-10	-8.366837935717195	1.3960341907932547	-1.5148248215294982	10.862720598972809	8.01494480242235	-2.3210629186438133e-06	-4.0584372590725056e-16	-16.084889624450657	-1.8073743893127534	-1.9260739100336046
1.783	4.849559644175017	2.428581020368881	-0.5225483850769149	0.5854976005817649	1.0066857378605647	-0.0033380870015199786	12.712663332108118	-4.988804280138725	-4.8231232133630435	-3.7605537450129054	-2.5556407236373193	1.239492323753349e-06	-5.724515337053846e-10	-14.444928496641923	4.929059300853733	2.465463128541971	-8.860761245981001	8.913989361228522	1.1791455002053752e-06	1.6024550182587592e-16	-15.30352547051386	-4.459796151672015	-5.949713373100109
1.8	4.778678576684811	3.81757950067231	-0.623961483944808	0.5776123586110515	1.004579465904873	-0.02916659928880598	23.128877854723655	-8.485711187860993	-6.0463951703498315	-6.204212018654591	-5.006596319350036	9.481682144448174e-07	-3.081041018624801e-10	-27.40529575699928	9.471293159521426	5.279284718236913	11.837122286502858	14.590128258770436	9.739669416084165e-07	-1.9028523673272995e-15	-15.266238794642891	-7.626738578295722	-9.429083833022274
